<svg width="194" height="194" viewBox="0 0 194 194" fill="none" xmlns="http://www.w3.org/2000/svg">
<path d="M96.9991 52.835C88.2562 52.835 79.7097 55.4275 72.4402 60.2848C65.1708 65.1421 59.5049 72.0459 56.1592 80.1233C52.8134 88.2007 51.938 97.0888 53.6437 105.664C55.3493 114.239 59.5594 122.115 65.7416 128.297C71.9237 134.479 79.8003 138.689 88.3752 140.395C96.95 142.101 105.838 141.225 113.916 137.88C121.993 134.534 128.897 128.868 133.754 121.599C138.611 114.329 141.204 105.783 141.204 97.0397C141.19 85.3202 136.528 74.0846 128.241 65.7977C119.954 57.5107 108.719 52.8489 96.9991 52.835Z" fill="#478AFF"/>
<path d="M160.469 56.754C171.59 56.754 180.605 47.7387 180.605 36.6177C180.605 25.4968 171.59 16.4814 160.469 16.4814C149.348 16.4814 140.333 25.4968 140.333 36.6177C140.333 47.7387 149.348 56.754 160.469 56.754Z" fill="#478AFF"/>
<path d="M185.263 56.8595L184.419 55.0121L183.099 56.5428C179.798 60.2887 175.624 63.1622 170.946 64.9087L169.627 65.3838L170.155 66.7033C177.266 83.8052 178.166 102.857 172.699 120.553C167.232 138.249 155.742 153.473 140.223 163.583C124.705 173.694 106.137 178.052 87.7402 175.903C69.3438 173.754 52.2802 165.233 39.5099 151.818C26.7396 138.403 19.0684 120.94 17.8273 102.461C16.5862 83.9808 21.8535 65.6496 32.7153 50.6474C43.5771 35.6452 59.348 24.9187 77.2917 20.329C95.2355 15.7393 114.22 17.5759 130.951 25.5203L132.191 26.1141L132.732 24.7946C134.704 20.208 137.777 16.1787 141.679 13.0638L143.262 11.7443L141.455 10.8074C127.721 3.66943 112.464 -0.0384722 96.9859 0.000300982C76.0303 0.00331017 55.6391 6.79261 38.8642 19.3521C22.0893 31.9116 9.83278 49.5658 3.92902 69.6727C-1.97475 89.7795 -1.20826 111.258 6.11375 130.892C13.4358 150.527 26.9195 167.263 44.547 178.595C62.1746 189.926 82.9978 195.245 103.9 193.754C124.803 192.263 144.661 184.044 160.501 170.325C176.342 156.606 187.315 138.126 191.776 117.651C196.237 97.1756 193.948 75.8062 185.25 56.7408L185.263 56.8595Z" fill="#478AFF"/>
</svg>
