<?xml version="1.0" encoding="UTF-8"?>
<!DOCTYPE svg PUBLIC "-//W3C//DTD SVG 1.1//EN" "http://www.w3.org/Graphics/SVG/1.1/DTD/svg11.dtd">
<!-- Creator: CorelDRAW -->
<svg xmlns="http://www.w3.org/2000/svg" xml:space="preserve" width="4.73958in" height="0.833331in" style="shape-rendering:geometricPrecision; text-rendering:geometricPrecision; image-rendering:optimizeQuality; fill-rule:evenodd; clip-rule:evenodd"
viewBox="0 0 4.73958 0.833331"
 xmlns:xlink="http://www.w3.org/1999/xlink">
 <defs>
  <style type="text/css">
   <![CDATA[
    .fil2 {fill:#2A4B5F;fill-rule:nonzero}
    .fil1 {fill:#84C225;fill-rule:nonzero}
    .fil0 {fill:white;fill-rule:nonzero}
   ]]>
  </style>
 </defs>
 <g id="Layer_x0020_1">
  <metadata id="CorelCorpID_0Corel-Layer"/>
  <g id="_147647464">
   <polygon id="_118022928" class="fil0" points="0.0287795,0.0405039 0.21448,0.0405039 0.21448,0.796323 0.0287795,0.795776 "/>
   <polygon id="_1180229281" class="fil0" points="0.908866,0.79687 0.42713,0.410409 0.427677,0.794685 0.241063,0.794685 0.241063,0.0292244 0.723161,0.389118 0.723161,0.0399606 0.908866,0.0410512 "/>
   <polygon id="_11802292812" class="fil0" points="1.11314,0.456803 1.11314,0.795776 0.935449,0.795776 0.935449,0.0394134 1.11314,0.0394134 1.11314,0.40022 1.3338,0.0394134 1.53389,0.0394134 1.29502,0.429512 1.53552,0.795776 1.33489,0.795776 "/>
   <path id="_118022928123" class="fil0" d="M1.56211 0.796323l0 -0.756362 0.226118 0c0.0506142,0 0.0935827,0.0038189 0.129087,0.0116417 0.0362283,0.00782677 0.0675433,0.0209252 0.0939409,0.0394843 0.0262165,0.0185591 0.0466102,0.0434843 0.060811,0.0751457 0.0141969,0.0316575 0.0212992,0.0702323 0.0212992,0.11572 0,0.0372992 -0.00710236,0.0707756 -0.0212992,0.100252 -0.0142008,0.0294764 -0.0340512,0.0545866 -0.0591693,0.0756929 -0.0256732,0.0212874 -0.0557126,0.0374803 -0.0903071,0.0483976 -0.0351339,0.0114646 -0.0715512,0.0171024 -0.109236,0.0171024l-0.0651772 0 0 0.272925 -0.186067 0zm0.186067 -0.595886l0 0.16248 0.0533425 0c0.0342283,0 0.0604449,-0.00709449 0.0790157,-0.0212874 0.0182087,-0.0138268 0.027126,-0.0342047 0.027126,-0.0607717 0,-0.0260157 -0.00891732,-0.0458504 -0.027126,-0.0596772 -0.0185709,-0.0138268 -0.0447874,-0.0207441 -0.0790157,-0.0207441l-0.0533425 0z"/>
   <polygon id="_1180229281234" class="fil0" points="2.11994,0.0405039 2.30564,0.0405039 2.30564,0.796323 2.11994,0.795776 "/>
   <polygon id="_118021800" class="fil0" points="3.67768,0.785657 3.19704,0.785657 3.19704,0.0292953 3.67768,0.0292953 3.67768,0.189772 3.38274,0.189772 3.38274,0.320776 3.53258,0.320776 3.57572,0.480165 3.38274,0.480165 3.38274,0.626272 3.67768,0.626272 "/>
   <polygon id="_1180218001" class="fil0" points="4.13956,0.785657 3.70426,0.785657 3.70426,0.0298386 3.88996,0.0292953 3.88996,0.612988 4.18909,0.612988 "/>
   <path id="_11802180012" class="fil0" d="M4.59982 0.229075c-0.0220276,-0.0209252 -0.0413268,-0.0356614 -0.0580787,-0.0442126 -0.0178425,-0.00927953 -0.0384134,-0.0138307 -0.0619016,-0.0138307 -0.0174764,0 -0.0336811,0.00546063 -0.0489724,0.0165591 -0.0160236,0.0109173 -0.0240315,0.0256535 -0.0240315,0.0436654 0,0.0256575 0.0174764,0.0458543 0.052248,0.0607717 0.0355039,0.0152835 0.0719134,0.0300236 0.109421,0.0442165 0.037685,0.0149173 0.0702756,0.0385709 0.0981339,0.0709567 0.0273071,0.032752 0.0409606,0.0806063 0.0409606,0.143925 0,0.0809646 -0.0243976,0.143193 -0.0730039,0.186496 -0.0484291,0.0438504 -0.11015,0.065685 -0.185157,0.065685 -0.0433307,0 -0.0853898,-0.00746063 -0.125807,-0.0223819 -0.0409646,-0.0149173 -0.0768268,-0.0372992 -0.10778,-0.0673189l0.100319 -0.142831c0.0320394,0.0405748 0.0740945,0.0607717 0.12635,0.0607717 0.020937,0 0.0411457,-0.00582283 0.0602598,-0.0174685 0.0189331,-0.0114606 0.0282165,-0.0282008 0.0282165,-0.0502165 0,-0.0258386 -0.0174724,-0.0465787 -0.0527953,-0.0618622 -0.0156535,-0.00673228 -0.0336811,-0.014374 -0.054252,-0.0229291l-0.0278583 -0.0110984 -0.0282165 -0.0118268c-0.0380512,-0.0154646 -0.0706417,-0.0391181 -0.0975866,-0.0707756 -0.0271299,-0.0312953 -0.0406024,-0.0780591 -0.0406024,-0.140283 0,-0.0474882 0.0118346,-0.0891575 0.0353228,-0.124638 0.0227559,-0.0352953 0.0531614,-0.0622244 0.0912126,-0.0811496 0.0369606,-0.018374 0.0764646,-0.0276535 0.118886,-0.0276535 0.0391457,0 0.0775591,0.00746063 0.115248,0.022378 0.0384134,0.0156496 0.0719134,0.0372992 0.100677,0.0651378l-0.0912126 0.129913z"/>
   <g>
    <polygon id="_118021728" class="fil1" points="3.0841,0.0558386 2.71924,0.588409 2.35711,0.0552874 2.56304,0.0558386 2.72361,0.299472 2.89202,0.0558386 "/>
    <polygon id="_118022088" class="fil2" points="2.35897,0.758638 2.72383,0.226067 3.08596,0.759189 2.88004,0.758638 2.71946,0.515008 2.55105,0.758638 "/>
   </g>
  </g>
 </g>
</svg>
