<svg width="78px" height="36px" viewBox="0 0 105 106" version="1.1"
  xmlns="http://www.w3.org/2000/svg"
  xmlns:xlink="http://www.w3.org/1999/xlink">
  <g id="Page-1" stroke="none" stroke-width="1" fill="none" fill-rule="evenodd">
    <g id="Artboard" transform="translate(-908.000000, -937.000000)">
      <g id="logo" transform="translate(908.000000, 937.000000)">
        <polygon id="Fill-1" fill="#028FA3" points="26.0361 90.1932 52.0721 105.2162 52.0721 101.2192 52.0721 82.6022 52.0721 75.1512"></polygon>
        <polygon id="Fill-2" fill="#02A8B2" points="52.0722 82.6026 52.0722 101.2196 52.0722 105.2156 78.1082 90.1936 52.0722 75.1516"></polygon>
        <polygon id="Fill-3" fill="#03B8D4" points="52.0718 75.1518 78.1078 90.1928 78.1078 82.7408 78.1078 64.1248 78.1078 60.1288"></polygon>
        <polygon id="Fill-4" fill="#03B8D4" points="78.1083 64.1247 78.1083 82.7407 78.1083 90.1937 104.1433 75.1517 78.1083 60.1287"></polygon>
        <polygon id="Fill-5" fill="#02A8B2" points="78.1083 60.1107 104.1433 75.1517 104.1433 45.0867"></polygon>
        <polygon id="Fill-6" fill="#05ABB5" points="78.1083 30.0642 104.1433 45.0872 104.1433 15.0232"></polygon>
        <polygon id="Fill-7" fill="#039CAB" points="78.1083 37.5153 78.1083 56.1313 78.1083 60.1283 104.1433 45.1043 78.1083 30.0643"></polygon>
        <polygon id="Fill-8" fill="#00A8CC" points="78.1083 -0.0003 78.1083 3.9957 78.1083 22.6127 78.1083 30.0647 104.1433 15.0237"></polygon>
        <polygon id="Fill-9" fill="#028FA3" points="78.1083 -0.0003 52.0723 15.0237 78.1083 30.0647 78.1083 22.6127 78.1083 3.9957"></polygon>
        <polygon id="Fill-10" fill="#FAB312" points="78.1079 30.0639 52.0719 15.0229 52.0719 22.4749 52.0719 41.0909 52.0719 45.0869"></polygon>
        <polygon id="Fill-11" fill="#F5991C" points="26.0362 30.0639 52.0722 15.0229 52.0722 22.4749 52.0722 41.0909 52.0722 45.0869"></polygon>
        <polygon id="Fill-12" fill="#ED4033" points="0 22.4754 0 41.0914 0 45.0874 26.036 30.0644 0 15.0234"></polygon>
        <polygon id="Fill-13" fill="#F79B19" points="26.0361 -0.0003 26.0361 3.9957 26.0361 22.6127 26.0361 30.0647 52.0721 15.0237"></polygon>
        <polygon id="Fill-14" fill="#F27226" points="26.0361 -0.0003 0.0001 15.0237 26.0361 30.0647 26.0361 22.6127 26.0361 3.9957"></polygon>
        <polygon id="Fill-15" fill="#8F0031" points="0 49.0839 0 67.6999 0 75.1519 26.036 60.1109 0 45.0869"></polygon>
        <polygon id="Fill-16" fill="#D10DAB" points="52.0718 45.1045 26.0358 30.0635 26.0358 37.5155 26.0358 56.1315 26.0358 60.1285"></polygon>
        <polygon id="Fill-17" fill="#D61E45" points="0 45.1041 26.036 60.1291 26.036 56.1311 26.036 37.5151 26.036 30.0641"></polygon>
        <polygon id="Fill-18" fill="#91198E" points="0 75.1515 26.036 90.1935 26.036 82.7405 26.036 64.1245 26.036 60.1285"></polygon>
      </g>
    </g>
  </g>
</svg>
