<svg width="1211" height="596" viewBox="0 0 1211 596" fill="none" xmlns="http://www.w3.org/2000/svg">
<g opacity="0.5">
<path opacity="0.5" d="M310.24 27L0 171.667L193.001 585.56L503.241 440.893L310.24 27Z" fill="url(#paint0_linear)"/>
</g>
<path d="M309.674 36.7859L7.26294 177.802L193.418 577.013L495.829 435.996L309.674 36.7859Z" fill="white"/>
<path d="M309.674 36.7859L7.26294 177.802L48.781 266.838L351.192 125.822L309.674 36.7859Z" fill="#FF5C00"/>
<path d="M342.151 169.351L87.9326 287.895L112.115 339.754L366.333 221.21L342.151 169.351Z" fill="#F5F5F5"/>
<path d="M315.909 292.378L130.368 378.897L138.579 396.507L324.12 309.987L315.909 292.378Z" fill="#E0E0E0"/>
<path d="M329.793 322.414L144.542 408.798L152.994 426.925L338.245 340.541L329.793 322.414Z" fill="#E0E0E0"/>
<path d="M344.162 353.229L158.911 439.613L166.941 456.833L352.192 370.449L344.162 353.229Z" fill="#E0E0E0"/>
<path d="M358.34 383.371L172.799 469.89L181.01 487.5L366.551 400.981L358.34 383.371Z" fill="#E0E0E0"/>
<path d="M342.435 190.734L103.059 302.357L110.244 317.764L349.619 206.142L342.435 190.734Z" fill="#69F0AE"/>
<path d="M372.477 413.952L187.226 500.335L195.256 517.555L380.507 431.171L372.477 413.952Z" fill="#E0E0E0"/>
<path d="M383.211 257.784L322.39 286.145L388.319 427.529L449.139 399.168L383.211 257.784Z" fill="#E0E0E0"/>
<g opacity="0.5">
<path opacity="0.5" d="M1210.24 181.667L900.001 37L707 450.893L1017.24 595.56L1210.24 181.667Z" fill="url(#paint1_linear)"/>
</g>
<path d="M1202.38 187.524L899.97 46.5075L713.815 445.718L1016.23 586.735L1202.38 187.524Z" fill="white"/>
<path d="M1202.38 187.524L899.97 46.5075L858.452 135.543L1160.86 276.56L1202.38 187.524Z" fill="#FF5C00"/>
<path d="M1121.71 297.614L867.488 179.07L843.306 230.929L1097.52 349.473L1121.71 297.614Z" fill="#F5F5F5"/>
<path d="M1010.59 356.592L825.053 270.072L816.841 287.682L1002.38 374.201L1010.59 356.592Z" fill="#E0E0E0"/>
<path d="M996.509 386.535L811.258 300.151L802.806 318.277L988.057 404.661L996.509 386.535Z" fill="#E0E0E0"/>
<path d="M982.14 417.349L796.889 330.965L788.859 348.185L974.11 434.569L982.14 417.349Z" fill="#E0E0E0"/>
<path d="M968.163 447.585L782.622 361.066L774.41 378.675L959.951 465.194L968.163 447.585Z" fill="#E0E0E0"/>
<path d="M1105.51 311.576L866.132 199.954L858.948 215.361L1098.32 326.984L1105.51 311.576Z" fill="#69F0AE"/>
<path d="M953.824 478.072L768.573 391.688L760.544 408.907L945.795 495.291L953.824 478.072Z" fill="#E0E0E0"/>
<path d="M1080.36 385.911L1019.53 357.55L953.607 498.934L1014.43 527.295L1080.36 385.911Z" fill="#E0E0E0"/>
<g opacity="0.5">
<path opacity="0.5" d="M879 0H331V456.68H879V0Z" fill="url(#paint2_linear)"/>
</g>
<path d="M871.559 8.63H337.387V449.11H871.559V8.63Z" fill="white"/>
<path d="M871.559 8.63H337.387V106.87H871.559V8.63Z" fill="#FFD700"/>
<path d="M828.99 142.5H379.945V199.72H828.99V142.5Z" fill="#F5F5F5"/>
<path d="M707.681 242.91H379.945V262.34H707.681V242.91Z" fill="#E0E0E0"/>
<path d="M707.504 276H380.281V296H707.504V276Z" fill="#E0E0E0"/>
<path d="M707.504 310H380.281V329H707.504V310Z" fill="#E0E0E0"/>
<path d="M707.681 343.31H379.945V362.74H707.681V343.31Z" fill="#E0E0E0"/>
<path d="M814.935 162H392.108V179H814.935V162Z" fill="#69F0AE"/>
<path d="M707.504 377H380.281V396H707.504V377Z" fill="#E0E0E0"/>
<path d="M828.734 240H721.302V396H828.734V240Z" fill="#E0E0E0"/>
<defs>
<linearGradient id="paint0_linear" x1="276587" y1="181846" x2="188449" y2="-7166.78" gradientUnits="userSpaceOnUse">
<stop stop-color="#808080" stop-opacity="0.25"/>
<stop offset="0.54" stop-color="#808080" stop-opacity="0.12"/>
<stop offset="1" stop-color="#808080" stop-opacity="0.1"/>
</linearGradient>
<linearGradient id="paint1_linear" x1="39516.4" y1="328693" x2="127654" y2="139680" gradientUnits="userSpaceOnUse">
<stop stop-color="#808080" stop-opacity="0.25"/>
<stop offset="0.54" stop-color="#808080" stop-opacity="0.12"/>
<stop offset="1" stop-color="#808080" stop-opacity="0.1"/>
</linearGradient>
<linearGradient id="paint2_linear" x1="278715" y1="281543" x2="278715" y2="72991.2" gradientUnits="userSpaceOnUse">
<stop stop-color="#808080" stop-opacity="0.25"/>
<stop offset="0.54" stop-color="#808080" stop-opacity="0.12"/>
<stop offset="1" stop-color="#808080" stop-opacity="0.1"/>
</linearGradient>
</defs>
</svg>
