<svg width="290" height="270" viewBox="0 0 290 270" fill="none" xmlns="http://www.w3.org/2000/svg">
<g filter="url(#filter0_d)">
<g opacity="0.5">
<path opacity="0.5" d="M281.945 8H8V261.047H281.945V8Z" fill="url(#paint0_linear)"/>
</g>
<path d="M278.225 12.7819H11.1927V256.852H278.225V12.7819Z" fill="white"/>
<path d="M251.478 40H27V71.7056H251.478V40Z" fill="#F5F5F5"/>
<path d="M196.303 142.597H32.4679V153.363H196.303V142.597Z" fill="#E0E0E0"/>
<path d="M196.835 87H33V97.7662H196.835V87Z" fill="#E0E0E0"/>
<path d="M196.835 105H33V115.766H196.835V105Z" fill="#E0E0E0"/>
<path d="M195.835 124H32V134.766H195.835V124Z" fill="#E0E0E0"/>
<path d="M196.214 160.932H32.6354V172.014H196.214V160.932Z" fill="#E0E0E0"/>
<path d="M196.214 179.771H32.6354V190.299H196.214V179.771Z" fill="#E0E0E0"/>
<path d="M196.303 198.228H32.4679V208.994H196.303V198.228Z" fill="#E0E0E0"/>
<path d="M244.372 51H33V60.4197H244.372V51Z" fill="#69F0AE"/>
<path d="M196.214 216.896H32.6354V227.424H196.214V216.896Z" fill="#E0E0E0"/>
<path d="M257 87H203V227H257V87Z" fill="#E0E0E0"/>
</g>
<defs>
<filter id="filter0_d" x="0" y="0" width="289.945" height="269.047" filterUnits="userSpaceOnUse" color-interpolation-filters="sRGB">
<feFlood flood-opacity="0" result="BackgroundImageFix"/>
<feColorMatrix in="SourceAlpha" type="matrix" values="0 0 0 0 0 0 0 0 0 0 0 0 0 0 0 0 0 0 127 0"/>
<feOffset/>
<feGaussianBlur stdDeviation="4"/>
<feColorMatrix type="matrix" values="0 0 0 0 0.5875 0 0 0 0 0.5875 0 0 0 0 0.5875 0 0 0 0.25 0"/>
<feBlend mode="normal" in2="BackgroundImageFix" result="effect1_dropShadow"/>
<feBlend mode="normal" in="SourceGraphic" in2="effect1_dropShadow" result="shape"/>
</filter>
<linearGradient id="paint0_linear" x1="139172" y1="156011" x2="139172" y2="40452.4" gradientUnits="userSpaceOnUse">
<stop stop-color="#808080" stop-opacity="0.25"/>
<stop offset="0.54" stop-color="#808080" stop-opacity="0.12"/>
<stop offset="1" stop-color="#808080" stop-opacity="0.1"/>
</linearGradient>
</defs>
</svg>
